<?xml version="1.0" encoding="utf-8"?>
<!-- Generator: Adobe Illustrator 26.1.0, SVG Export Plug-In . SVG Version: 6.00 Build 0)  -->
<svg version="1.1" id="Capa_1" xmlns="http://www.w3.org/2000/svg" xmlns:xlink="http://www.w3.org/1999/xlink" x="0px" y="0px"
	 viewBox="0 0 1920 1080" style="enable-background:new 0 0 1920 1080;" xml:space="preserve">
<style type="text/css">
	.st0{clip-path:url(#SVGID_00000041289684393576446730000005263154621049791158_);}
	.st1{filter:url(#ac67922774);}
	.st2{mask:url(#_x38_5292ba477_00000179623082539649250490000008747221008919955619_);}
	.st3{fill:#FFFFFF;}
</style>
<filter  height="100%" id="ac67922774" width="100%" x="0%" y="0%">
	<feColorMatrix  color-interpolation-filters="sRGB" values="0 0 0 0 1 0 0 0 0 1 0 0 0 0 1 0 0 0 1 0"></feColorMatrix>
</filter>
<g>
	<defs>
		<rect id="SVGID_1_" x="177.6" y="193.4" width="562" height="636"/>
	</defs>
	<clipPath id="SVGID_00000039841160630846798260000004541615392294975647_">
		<use xlink:href="#SVGID_1_"  style="overflow:visible;"/>
	</clipPath>
	<g style="clip-path:url(#SVGID_00000039841160630846798260000004541615392294975647_);">
		<defs>
			<filter id="Adobe_OpacityMaskFilter" filterUnits="userSpaceOnUse" x="145.7" y="193.4" width="619" height="652">
				<feColorMatrix  type="matrix" values="1 0 0 0 0  0 1 0 0 0  0 0 1 0 0  0 0 0 1 0"/>
			</filter>
		</defs>
		
			<mask maskUnits="userSpaceOnUse" x="145.7" y="193.4" width="619" height="652" id="_x38_5292ba477_00000179623082539649250490000008747221008919955619_">
			<g class="st1">
				<g transform="matrix(0.963174, 0, 0, 0.962598, 109.240995, 145.029637)">
					
						<image style="overflow:visible;enable-background:new    ;" width="482" height="508" xlink:href="9C225FB928680F1E.jpg"  transform="matrix(1.3333 0 0 1.3333 37.8059 50.2216)">
					</image>
				</g>
			</g>
		</mask>
		<g class="st2">
			<g transform="matrix(0.963174, 0, 0, 0.962598, 109.240995, 145.029637)">
				<g style="enable-background:new    ;">
					
						<image style="overflow:visible;" width="482" height="508" xlink:href="9C225FB928680F22.png"  transform="matrix(1.3333 0 0 1.3333 37.8059 50.2216)">
					</image>
				</g>
			</g>
		</g>
	</g>
</g>
<g>
	<g transform="translate(608.471053, 351.431254)">
		<g>
			<path class="st3" d="M251.3,65.4c0.2-0.6,0.5-1.1,0.8-1.5c0.3-0.4,0.5-0.6,0.7-0.8c0.2-0.1,0.5-0.3,0.8-0.5
				c0.3-0.2,0.6-0.3,0.6-0.4c0.8-0.5,1.5-1.2,2.1-2.1c0.5-0.8,0.8-1.8,0.8-2.9c0-2.6-0.9-4.7-2.6-6.2c-1.8-1.6-4.4-2.3-7.9-2.3
				c-4.1,0-7.8,1.2-11,3.5c-3.2,2.3-5.7,5.8-7.6,10.5c-1.9,4.8-2.9,10.6-2.9,17.4c0,5.8,1,11.1,3,15.9c2,4.6,4.9,8.2,8.5,10.9
				c3.5,2.6,7.5,4,12.1,4c3,0,5.5-0.5,7.7-1.4c0.5-0.2,1.1-0.5,1.6-0.8c2.6-1.5,4.9-3.8,6.9-7.1c0.2-0.4,0.5-0.7,0.8-1
				c0.3-0.3,0.7-0.6,1-0.9c0.4-0.3,0.8-0.5,1.2-0.6c0.4-0.2,0.8-0.2,1.2-0.2c1.2,0,2.4,0.4,3.6,1.2h0.1c2.1,1.5,3.2,3.1,3.2,5
				c0,0.3,0,0.6-0.1,0.9c-0.1,0.3-0.2,0.5-0.3,0.8c-0.1,0.3-0.2,0.5-0.4,0.8c-0.1,0.2-0.2,0.5-0.4,0.7c-1.6,1.9-3.1,3.5-4.5,5
				c-1.4,1.5-2.9,2.8-4.4,3.9c-1.6,1.2-3.4,2.1-5.1,2.9c-1.4,0.6-2.8,1.1-4.3,1.4c-3.3,0.8-7.3,1.2-12.1,1.2
				c-7.2,0-13.7-1.7-19.6-5.1c-5.9-3.4-10.6-8.3-14.1-14.6c-3.5-6.3-5.3-13.6-5.3-21.8c0-4.1,0.4-8,1.2-11.7
				c0.8-3.7,2.1-7.2,3.8-10.5c3.3-6.5,8.2-11.5,14.5-15c6.2-3.6,13.3-5.4,21.6-5.4c7.2,0,13.5,1.4,19.1,4.3c1.2,0.6,2.4,1.3,3.3,2.2
				c1,0.8,1.8,1.7,2.6,2.6c0.8,0.9,1.4,1.9,1.9,3c0.5,1.1,0.9,2.2,1.2,3.4c0.3,1.2,0.4,2.5,0.4,3.8c0.1,4.2-1.2,7.8-3.9,10.9
				c-1.4,1.6-3,2.7-4.9,3.5c-1.9,0.8-3.9,1.2-6.1,1.2c-1.9,0-3.5-0.3-4.9-1c-0.3-0.2-0.6-0.4-0.9-0.6c-0.3-0.2-0.6-0.4-0.9-0.6
				c-0.3-0.2-0.5-0.4-0.8-0.7c-0.2-0.3-0.5-0.6-0.7-0.9C251.5,68.1,251.2,66.8,251.3,65.4z"/>
		</g>
	</g>
</g>
<g>
	<g transform="translate(664.400982, 351.431254)">
		<g>
			<path class="st3" d="M237.8,117.3c-1.2-0.7-2.3-1.5-3.3-2.3c-1-0.8-2-1.7-2.9-2.6c-0.9-0.9-1.7-1.9-2.5-3c-0.7-1.1-1.4-2.1-2-3.2
				c-2.6-4.7-3.8-9.6-3.8-14.7c0-6.4,1.5-12,4.5-16.8c3-4.8,6.8-8.4,11.4-10.9c4.7-2.5,9.4-3.8,14.1-3.8c2.9,0,5.6,0.4,8.3,1.1
				c2.7,0.7,5.1,1.7,7.4,3.1c4.6,2.8,8.1,6.5,10.7,11.1c2.5,4.6,3.8,9.5,3.8,14.6c0,6.4-1.5,12-4.5,16.8c-3,4.8-6.9,8.4-11.6,10.9
				s-9.3,3.8-14,3.8C247.6,121.5,242.4,120.1,237.8,117.3z M262.6,106.1c0.4-0.8,0.8-1.6,1.1-2.5c0.3-0.9,0.7-1.9,0.9-2.9
				c0.3-1,0.5-2.1,0.7-3.2c0.2-1.1,0.3-2.3,0.4-3.6c0.1-1.3,0.1-2.6,0.1-3.9c0-6.2-1.1-11.1-3.4-14.9c-1.9-3.3-4.9-4.9-9-4.9
				c-2.3,0-4.1,0.4-5.6,1.2c-1.4,0.8-2.6,2.1-3.5,3.9c-0.7,1.3-1.3,2.8-1.8,4.4c-0.5,1.6-0.8,3.4-1.1,5.3c-0.3,1.9-0.4,4-0.4,6.3
				c0,6.2,1.1,11.2,3.4,15.1c1,1.7,2.2,3,3.6,3.8c1.4,0.8,3.2,1.2,5.4,1.2c1.5,0,2.8-0.2,3.8-0.6c1.1-0.4,2.1-0.9,2.9-1.7
				C261.1,108.3,261.8,107.3,262.6,106.1z"/>
		</g>
	</g>
</g>
<g>
	<g transform="translate(712.365926, 351.431254)">
		<g>
			<path class="st3" d="M238.4,118.5c-0.8-1-1.2-2.1-1.2-3.4v-0.2c0.2-2,0.9-3.4,2.1-4.1c0.8-0.5,2-0.7,3.5-0.7
				c1.3,0,2.1-0.1,2.4-0.4c0.3-0.3,0.5-0.5,0.5-0.7c0.2-0.8,0.2-2.1,0.2-4v-57c0-0.9,0-1.7-0.1-2.4c0-0.7-0.1-1.3-0.1-1.6l-0.5-0.6
				c-0.3-0.2-1.1-0.4-2.5-0.4c-1.5,0-2.7-0.3-3.6-0.8c-1.4-0.9-2.1-2.3-2.1-4.4c0-1.1,0.3-2.1,1-3c0.8-1.1,1.9-1.8,3.4-2
				c4.7-0.6,8.6-1.5,11.9-2.8c0.7-0.3,1.3-0.5,1.9-0.6c0.6-0.1,1.1-0.2,1.5-0.3h0.7c1.4,0,2.5,0.5,3.4,1.6c0.9,1,1.4,2.2,1.4,3.6
				v70.8c0,1.9,0.1,3.2,0.2,4l0.5,0.7c0,0,0.1,0,0.2,0.1c0.2,0,0.4,0.1,0.8,0.2c0.4,0.1,0.9,0.1,1.4,0.1h0.7c1.2,0,2.3,0.3,3.1,0.9
				c1,0.8,1.6,2.1,1.8,3.9v0.2c0,0.2,0,0.3,0,0.5c0,0.2,0,0.3-0.1,0.5c0,0.2-0.1,0.3-0.1,0.5c0,0.2-0.1,0.3-0.1,0.5
				c0,0.2-0.1,0.3-0.2,0.5c-0.1,0.2-0.1,0.3-0.2,0.5c-0.1,0.2-0.1,0.3-0.2,0.5c-0.3,0.4-0.7,0.7-1.1,1c-0.4,0.3-0.9,0.5-1.4,0.7
				c-0.5,0.2-0.9,0.2-1.4,0.2h-0.1c-4.5-0.2-8.6-0.4-12.1-0.4c-1.7,0-3.6,0-5.6,0.1c-2,0-4.2,0.1-6.4,0.3H242
				C240.4,120.4,239.2,119.8,238.4,118.5z"/>
		</g>
	</g>
</g>
<g>
	<g transform="translate(737.398731, 351.431254)">
		<g>
			<path class="st3" d="M261.4,117.3c-4.5-2.7-7.9-6.5-10.3-11.3c-2.3-4.7-3.5-9.8-3.5-15.5c0-5.1,1.2-9.9,3.5-14.6
				c2.4-4.7,5.8-8.5,10.1-11.4c4.4-3,9.5-4.4,15.3-4.4c7.7,0,13.7,2,18,6.1c4.3,4.1,6.7,9.5,7.4,16.2v0.2c0,3.6-1.1,6.2-3.4,7.7
				c-1.9,1.2-4.4,1.9-7.7,1.9h-25.3c0.3,5.3,1.6,9.5,3.9,12.6c2.4,3.4,6.2,5.1,11.5,5.1c0.5,0,1.1,0,1.6-0.1c0.6,0,1.1-0.1,1.6-0.2
				c0.5-0.1,1-0.2,1.4-0.3c0.4-0.1,0.8-0.3,1.2-0.5c0.4-0.2,0.8-0.4,1.2-0.6c1.9-1.2,3.9-3.3,5.7-6.3l0.1-0.4l0.2-0.2
				c0.5-0.4,1-0.7,1.5-1c0.6-0.3,1.1-0.4,1.8-0.4c0.2,0,0.5,0,0.8,0.1c0.3,0.1,0.6,0.2,0.9,0.2c0.3,0.1,0.5,0.2,0.8,0.3
				c0.2,0.1,0.4,0.2,0.6,0.3c1.6,1.1,2.5,2.6,2.5,4.6c0,0.5-0.1,0.9-0.2,1.3c-0.1,0.4-0.3,0.9-0.5,1.3c-1.3,2-2.8,3.9-4.6,5.6
				c-1.7,1.7-3.6,3.1-5.6,4.3c-4.1,2.4-8.8,3.6-14,3.6C271.5,121.5,266,120.1,261.4,117.3z M281.5,81.8c1.4,0,2.3-0.2,2.7-0.5
				c0.4-0.3,0.6-0.9,0.7-1.6c0-0.5,0-0.9-0.1-1.3c0-0.4-0.1-0.8-0.2-1.2c-0.1-0.4-0.1-0.8-0.2-1.1c-0.1-0.3-0.2-0.7-0.3-1
				c-0.1-0.3-0.2-0.6-0.4-0.9c-0.2-0.3-0.3-0.6-0.5-0.9c-0.2-0.3-0.4-0.6-0.6-0.9c-0.7-0.8-1.5-1.5-2.5-1.9
				c-0.9-0.4-2.1-0.6-3.5-0.6c-3,0-5.6,1.2-7.6,3.6c-1.6,2.1-2.7,4.9-3.3,8.3H281.5z"/>
		</g>
	</g>
</g>
<g>
	<g transform="translate(781.337426, 351.431254)">
		<g>
			<path class="st3" d="M280.9,119.9c0.2,0.2,0.3,0.4,0.4,0.6c0.1,0.2,0.2,0.4,0.3,0.8c0.1,0.3,0.2,0.7,0.2,1c0,0.7-0.1,1.3-0.2,1.7
				c-0.2,0.4-0.3,0.7-0.5,0.8c-0.2,0.1-0.4,0.2-0.6,0.3c-0.2,0.1-0.4,0.2-0.5,0.3c-0.5,0.5-0.9,1-1.2,1.8c-0.3,0.5-0.5,1.2-0.5,2.1
				c0,4,4.2,6.1,12.5,6.1c0.6,0,1.2,0,1.8-0.1c0.6,0,1.1-0.1,1.7-0.1c3.7-0.3,6.5-1.1,8.5-2.4c2.3-1.6,3.5-3.8,3.5-6.8
				c0-0.3,0-0.6-0.1-0.9c0-0.3-0.1-0.5-0.2-0.8c-0.1-0.2-0.2-0.4-0.3-0.6c-0.1-0.2-0.2-0.4-0.4-0.5c-0.2-0.1-0.3-0.2-0.6-0.4
				c-0.7-0.5-1.5-0.9-2.5-1.2c-1-0.3-2-0.6-3.2-0.8c-0.7-0.1-1.5-0.1-2.2-0.2c-0.8,0-1.6-0.1-2.5-0.2c-0.8-0.1-1.8-0.1-2.8-0.2
				c-1,0-2.1-0.1-3.3-0.1C285.4,120.2,283,120.1,280.9,119.9z M268.5,116.6c-0.3-0.2-0.6-0.5-0.9-0.7c-2.3-1.9-3.5-4.9-3.5-8.8
				c0-3.9,1.4-7.2,4.1-9.8c0.8-0.8,1.8-1.5,2.9-2.1c-0.8-0.5-1.5-1.1-2.1-1.8s-1.2-1.3-1.8-2c-2.2-3.2-3.3-6.8-3.3-10.7
				c0-4,1.1-7.6,3.4-10.8c1.1-1.6,2.4-3.1,4-4.3c1.6-1.2,3.3-2.3,5.2-3.1c3.8-1.7,8.1-2.6,12.8-2.6c5.5,0,10,0.7,13.3,2.2l4.7-0.9
				l10.4-2h0.8c1.6,0,2.8,0.6,3.6,1.8c0.9,1.2,1.3,2.5,1.3,3.9c0,0.4,0,0.7-0.1,1.1c0,0.3-0.1,0.6-0.1,1c0,0.3-0.1,0.7-0.2,1
				c-0.1,0.3-0.2,0.7-0.3,1c-0.2,0.6-0.4,1-0.6,1.4c-0.2,0.3-0.6,0.8-1.2,1.2c-0.6,0.5-1.4,0.7-2.2,0.7l-5.9-0.2
				c0.2,0.4,0.4,0.8,0.6,1.2c1.1,2.6,1.6,5,1.6,7.4c0,4.2-1.2,7.9-3.6,11.2c-1.2,1.6-2.6,3-4.2,4.2c-1.6,1.2-3.3,2.2-5.1,3.1
				c-3.7,1.6-7.6,2.4-11.7,2.4h-5.1c-2.9,0-5.1,0.2-6.7,0.6c-0.4,0.2-0.7,0.3-1,0.4c-0.6,0.3-0.9,0.7-0.9,1.2c0,0.5,0.1,0.7,0.2,0.8
				c0.5,0.4,1.8,0.7,3.8,0.8l16,0.6c8.7,0.3,15.1,1.7,19.1,4.3c4.5,2.9,6.8,7.2,6.8,13c0,7.2-3.3,12.8-9.9,16.8
				c-2.2,1.3-4.7,2.4-7.4,3.3c-2.7,0.9-5.6,1.5-8.8,1.9c-1.2,0.2-2.6,0.3-3.9,0.3c-1.4,0.1-2.7,0.1-4.1,0.1
				c-8.6,0-15.4-1.4-20.2-4.1c-4.9-2.8-7.3-7-7.3-12.8c0-3.3,1.1-6.3,3.3-8.8c0.6-0.8,1.3-1.4,2.1-2
				C266.8,117.3,267.6,116.9,268.5,116.6z M295.9,89.4c0.6-0.6,1.1-1.4,1.5-2.2c0.4-0.9,0.7-1.9,0.9-3c0.2-1.1,0.3-2.4,0.3-3.7
				c0-3.5-0.9-6.3-2.7-8.3c-1.7-1.9-3.9-2.9-6.6-2.9c-0.9,0-1.8,0.1-2.6,0.3c-0.8,0.2-1.5,0.5-2.1,0.9c-0.6,0.4-1.2,1-1.8,1.6
				c-0.6,0.6-1.1,1.3-1.5,2.1c-0.4,0.8-0.7,1.7-0.9,2.7c-0.2,1-0.3,2.1-0.3,3.4c0,4,0.9,7,2.7,9.1c1.7,1.9,3.9,2.9,6.5,2.9
				C292.1,92.3,294.3,91.3,295.9,89.4z"/>
		</g>
	</g>
</g>
<g>
	<g transform="translate(827.114191, 351.431254)">
		<g>
			<path class="st3" d="M277.8,118.5c-0.8-1-1.2-2.1-1.2-3.4v-0.2c0,0,0,0,0-0.1c0.2-2,0.9-3.4,2.3-4.1c0.8-0.4,1.9-0.6,3.4-0.6
				c1.3,0,2.2-0.1,2.5-0.4c0.2-0.2,0.4-0.4,0.5-0.6c0.1-0.9,0.1-2.2,0.1-4.1V78.4c0-1.9,0-3.2-0.1-4.1c-0.1-0.2-0.2-0.3-0.5-0.6
				c-0.3-0.2-1.1-0.4-2.5-0.4c-1.5,0-2.7-0.3-3.6-0.8c-1.4-0.9-2.1-2.3-2.1-4.4c0-1.1,0.3-2.1,1-3c0.4-0.6,0.9-1,1.5-1.4
				c0.6-0.3,1.2-0.6,1.9-0.6c4.7-0.6,8.6-1.6,11.9-2.8c0.7-0.3,1.3-0.5,1.9-0.6c0.5-0.1,1-0.2,1.5-0.3h0.7c1.4,0,2.5,0.5,3.4,1.6
				c0.9,1,1.4,2.2,1.4,3.5v40.6c0,1.9,0.1,3.2,0.2,4c0,0.2,0.2,0.4,0.5,0.7c0,0,0.1,0,0.2,0.1c0.2,0,0.4,0.1,0.8,0.2
				c0.4,0.1,0.9,0.1,1.4,0.1h0.7c1.2,0,2.3,0.3,3.1,0.9c1,0.8,1.6,2.1,1.8,3.9v0.2c0,0.3,0,0.6-0.1,0.9c0,0.3-0.1,0.5-0.2,0.8
				c-0.1,0.3-0.2,0.5-0.3,0.8c-0.1,0.3-0.2,0.5-0.4,0.8c-0.3,0.4-0.7,0.7-1.1,1c-0.4,0.3-0.9,0.5-1.4,0.7c-0.5,0.2-0.9,0.2-1.4,0.2
				h-0.1c-4.5-0.2-8.6-0.4-12.1-0.4c-1.7,0-3.6,0-5.6,0.1c-2,0-4.2,0.1-6.4,0.3h-0.1C279.9,120.4,278.7,119.8,277.8,118.5z
				 M285.5,49.5c-2.1-1.9-3.2-4.4-3.2-7.2c0-0.7,0.1-1.4,0.3-2c0.2-0.7,0.4-1.3,0.8-1.9c0.3-0.6,0.7-1.2,1.2-1.7
				c0.5-0.5,1-1,1.6-1.5c1.1-0.9,2.3-1.5,3.7-2c1.4-0.5,2.7-0.7,4.1-0.7c0.8,0,1.7,0.1,2.5,0.4c0.9,0.2,1.7,0.6,2.4,1
				c0.8,0.4,1.4,1,1.9,1.7c1.8,1.9,2.7,4.2,2.7,7.1c0,2.7-1.1,5.1-3.1,7c-2,1.8-4.5,2.7-7.5,2.7C290,52.2,287.5,51.3,285.5,49.5z"/>
		</g>
	</g>
</g>
<g>
	<g transform="translate(853.022264, 351.431254)">
		<g>
			<path class="st3" d="M300.7,117.3c-1.2-0.7-2.3-1.5-3.3-2.3c-1-0.8-2-1.7-2.9-2.6c-0.9-0.9-1.7-1.9-2.5-3c-0.7-1.1-1.4-2.1-2-3.2
				c-2.6-4.7-3.8-9.6-3.8-14.7c0-6.4,1.5-12,4.5-16.8c3-4.8,6.8-8.4,11.4-10.9c4.7-2.5,9.4-3.8,14.1-3.8c2.9,0,5.6,0.4,8.3,1.1
				c2.7,0.7,5.1,1.7,7.4,3.1c4.6,2.8,8.1,6.5,10.7,11.1c2.5,4.6,3.8,9.5,3.8,14.6c0,6.4-1.5,12-4.5,16.8c-3,4.8-6.9,8.4-11.6,10.9
				c-4.7,2.5-9.3,3.8-14,3.8C310.5,121.5,305.3,120.1,300.7,117.3z M325.4,106.1c0.4-0.8,0.8-1.6,1.1-2.5c0.3-0.9,0.7-1.9,0.9-2.9
				c0.3-1,0.5-2.1,0.7-3.2c0.2-1.1,0.3-2.3,0.4-3.6c0.1-1.3,0.1-2.6,0.1-3.9c0-6.2-1.1-11.1-3.4-14.9c-1.9-3.3-4.9-4.9-9-4.9
				c-2.3,0-4.1,0.4-5.6,1.2c-1.4,0.8-2.6,2.1-3.5,3.9c-0.7,1.3-1.3,2.8-1.8,4.4c-0.5,1.6-0.8,3.4-1.1,5.3c-0.3,1.9-0.4,4-0.4,6.3
				c0,6.2,1.1,11.2,3.4,15.1c1,1.7,2.2,3,3.6,3.8c1.4,0.8,3.2,1.2,5.4,1.2c1.5,0,2.8-0.2,3.8-0.6c1.1-0.4,2.1-0.9,2.9-1.7
				C323.9,108.3,324.7,107.3,325.4,106.1z"/>
		</g>
	</g>
</g>
<g>
	<g transform="translate(900.987196, 351.431254)">
	</g>
</g>
<g>
	<g transform="translate(920.50578, 351.431254)">
		<g>
			<path class="st3" d="M303.6,118.4c-0.7-1-1-2.2-1-3.5v-0.2c0,0,0-0.1,0-0.2c0.2-2,0.9-3.4,2.1-4.1c0.8-0.5,1.8-0.8,2.9-0.8h1
				c1.5,0,2.4-0.3,2.9-0.8c0.9-1,1.7-2.1,2.2-3.3c0.1-0.3,0.2-0.6,0.3-0.8c0.1-0.2,0.2-0.4,0.3-0.6c0.1-0.2,0.2-0.4,0.2-0.5
				c0.1-0.2,0.1-0.3,0.2-0.5c0-0.2,0.1-0.3,0.2-0.4c0.1-0.1,0.1-0.2,0.1-0.3l2.8-6.7L335.4,54c0.3-0.8,0.5-1.3,0.5-1.6l-0.1-0.5
				c-0.8-0.5-2.1-0.8-3.7-1.2c-1.7-0.3-2.9-0.7-3.6-1.3c-1.1-0.9-1.6-2.3-1.6-4.3c0-2,0.7-3.5,2.1-4.3c1-0.6,2.3-0.9,4-0.9
				c1.4,0,2.7,0,3.9,0.1c1.2,0.1,2.3,0.2,3.3,0.3c1,0.1,2,0.3,2.9,0.5c2.8,0.8,5.3,2.2,7.4,4.3c1.9,2,3.7,5,5.4,9l19.6,48.3
				c1.1,2.7,2.1,4.7,3,6c0.3,0.4,0.7,0.7,1.1,0.9c0.4,0.2,0.9,0.3,1.5,0.3h0.7c1.5,0,2.7,0.4,3.5,1.2c0.2,0.1,0.3,0.2,0.5,0.4
				c0.2,0.2,0.3,0.3,0.3,0.4c0.1,0.1,0.2,0.2,0.2,0.4c0.1,0.2,0.1,0.3,0.2,0.4c0,0.1,0.1,0.3,0.1,0.5c0,0.2,0.1,0.3,0.1,0.4
				c0,0.1,0.1,0.2,0.1,0.4c0,0.2,0,0.3,0.1,0.4c0,0.1,0.1,0.2,0.1,0.4c0,0.2,0,0.3,0,0.3v0.2c0,1.3-0.4,2.5-1.1,3.5
				c-0.3,0.4-0.7,0.7-1.1,1c-0.4,0.3-0.9,0.5-1.4,0.7c-0.5,0.2-1,0.2-1.4,0.2h-0.1c-5-0.2-9.2-0.4-12.7-0.4c-4.6,0-9.4,0.1-14.4,0.4
				h-0.1c-0.5,0-1-0.1-1.5-0.2c-0.5-0.2-1-0.4-1.4-0.7c-0.4-0.3-0.8-0.7-1.1-1c-0.4-0.6-0.7-1.1-0.8-1.7c-0.2-0.6-0.2-1.2-0.2-1.8
				v-0.2c0.2-1.9,0.7-3.2,1.6-4c0.8-0.8,2-1.2,3.5-1.2c2.1,0,3.5-0.2,4.3-0.5c0-0.1,0-0.1,0-0.1c0-0.1,0-0.3-0.1-0.7
				c-0.1-0.4-0.2-0.9-0.4-1.6c-0.2-0.7-0.4-1.4-0.6-2.1l-3.3-7.8h-24.9c-0.8,1.9-1.4,3.3-1.8,4.4c-0.5,1-0.7,1.7-0.8,2
				c-0.1,0.2-0.2,0.4-0.2,0.7c0,0.2,0,0.3-0.1,0.4c0,0.1,0,0.1,0,0.2c-0.4,1.1-0.7,2.1-0.9,3c-0.2,0.9-0.4,1.4-0.4,1.7
				c1,0.3,2.8,0.5,5.5,0.5h0.7c1.5,0,2.6,0.4,3.5,1.2c0.9,0.8,1.5,2.1,1.6,4v0.2c0,1.3-0.4,2.5-1.1,3.5c-0.5,0.6-1.1,1.1-1.8,1.4
				c-0.7,0.4-1.4,0.5-2.2,0.5h-0.1c-2.5-0.2-4.8-0.2-6.9-0.3c-2.1,0-4-0.1-5.7-0.1c-2.4,0-6.2,0.1-11.2,0.4h-0.1
				C305.8,120.4,304.5,119.8,303.6,118.4z M334,85.9h15.9l-7.7-19.7L334,85.9z"/>
		</g>
	</g>
</g>
<g>
	<g transform="translate(977.661097, 351.431254)">
		<g>
			<path class="st3" d="M333.5,120.1c-0.9-0.9-1.4-2.1-1.4-3.6V48.3c0-0.5,0-0.9,0-1.3c0-0.4,0-0.8-0.1-1.2c0-0.4-0.1-0.7-0.1-0.9
				c0-0.3,0-0.5,0-0.6l-0.5-0.6c-0.3-0.2-1.1-0.4-2.5-0.4c-1.5,0-2.7-0.3-3.6-0.8c-1.4-0.9-2.1-2.3-2.1-4.4c0-1.1,0.3-2.1,1-3
				c0.8-1.1,1.9-1.7,3.4-2c4.7-0.6,8.6-1.6,11.9-2.8c0.5-0.2,0.9-0.4,1.2-0.5c0.3-0.1,0.7-0.2,1.1-0.2c0.4-0.1,0.7-0.2,1-0.2h0.7
				c1.4,0,2.5,0.5,3.4,1.6c0.9,1,1.4,2.2,1.4,3.5v29.5c0.5-0.3,0.9-0.6,1.3-0.8c0.4-0.2,0.9-0.4,1.3-0.6c0.4-0.2,0.9-0.4,1.3-0.6
				c3.2-1.2,6.4-1.9,9.6-1.9c2.6,0,5,0.3,7.3,1c2.3,0.7,4.6,1.6,6.7,3c2.1,1.3,4,2.9,5.6,4.7c1.7,1.8,3.1,3.9,4.3,6.1
				c2.3,4.6,3.5,9.8,3.5,15.5c0,5.8-1.3,11-4,15.8c-2.7,4.8-6.3,8.5-10.9,11.2c-4.6,2.8-9.5,4.2-14.7,4.2c-6.4,0-12.1-1.5-17-4.5
				c-0.5,1.2-1,2.1-1.5,2.8c-1.1,1.3-2.4,2-4.1,2c-0.7,0-1.4-0.1-2-0.4C334.5,121,333.9,120.6,333.5,120.1z M367.9,106.5
				c2.6-3.9,3.9-9.1,3.9-15.8c0-5.5-1.2-10.2-3.8-14c-2.2-3.4-5.6-5.1-10-5.1c-3.7,0-6.8,1.2-9.5,3.6v29.3c0.1,0.4,0.2,0.8,0.5,1.3
				c0.2,0.5,0.6,1,1.1,1.5c0.2,0.4,0.5,0.8,0.9,1.1c0.4,0.3,0.8,0.7,1.2,1c0.5,0.3,1,0.6,1.5,0.9c1.5,0.9,3.2,1.3,5.1,1.3
				C362.5,111.7,365.6,110,367.9,106.5z"/>
		</g>
	</g>
</g>
<g>
	<g transform="translate(1026.763893, 351.431254)">
		<g>
			<path class="st3" d="M344.4,118.5c-0.8-1-1.2-2.1-1.2-3.4v-0.2c0,0,0,0,0-0.1c0.2-2,0.9-3.4,2.3-4.1c0.8-0.4,1.9-0.6,3.4-0.6
				c1.3,0,2.2-0.1,2.5-0.4c0.2-0.2,0.4-0.4,0.5-0.6c0.1-0.9,0.1-2.2,0.1-4.1V78.4c0-1.9,0-3.2-0.1-4.1c-0.1-0.2-0.2-0.3-0.5-0.6
				c-0.3-0.2-1.1-0.4-2.5-0.4c-1.5,0-2.7-0.3-3.6-0.8c-1.4-0.9-2.1-2.3-2.1-4.4c0-1.1,0.3-2.1,1-3c0.8-1.1,1.9-1.8,3.4-2
				c2.3-0.3,4.5-0.7,6.5-1.2c2-0.5,3.8-1,5.2-1.6l0.1-0.1h0.1c1.4-0.4,2.4-0.7,3-0.8h0.8c1.4,0,2.5,0.5,3.4,1.6
				c0.9,1,1.4,2.2,1.4,3.5v1.1c1.4-1.1,2.8-2,4.3-2.8c1-0.6,2-1.1,3-1.5c1-0.4,2-0.7,3-0.9c1-0.2,2-0.4,2.9-0.4
				c1.1,0,2.2,0.2,3.2,0.5c1.1,0.3,2,0.8,2.9,1.3c0.9,0.6,1.6,1.3,2.3,2.1c0.9,1.2,1.6,2.5,2.1,3.9c0.5,1.4,0.8,2.9,0.8,4.5
				c0,2.9-0.9,5.4-2.6,7.6c-1.9,2.5-4.6,3.7-7.8,3.7c-0.6,0-1.1,0-1.5-0.1c-0.5-0.1-0.9-0.2-1.4-0.4c-0.5-0.2-0.9-0.3-1.4-0.6
				c0-0.1-0.1-0.2-0.4-0.3c-0.3-0.1-0.5-0.2-0.6-0.3c-0.1-0.1-0.3-0.2-0.5-0.4c-0.2-0.2-0.4-0.3-0.5-0.5c-0.2-0.2-0.3-0.4-0.4-0.7
				c-0.1-0.3-0.2-0.6-0.3-0.9l-0.2-1l0.5-0.9c0.1-0.2,0.2-0.4,0.3-0.6c0.1-0.2,0.2-0.3,0.3-0.4c0.1-0.1,0.2-0.2,0.4-0.5
				c0.2-0.2,0.4-0.4,0.5-0.6c0.2-0.2,0.3-0.3,0.3-0.4c0-0.1,0.1-0.3,0.1-0.5c0-0.3,0-0.6-0.1-0.8c0-0.2-0.1-0.3-0.1-0.4
				c0-0.1-0.1-0.2-0.2-0.4c-0.3-0.2-0.6-0.2-0.8-0.2c-0.8,0-1.9,0.5-3.5,1.5c-0.3,0.2-0.6,0.3-0.9,0.6c-0.3,0.2-0.6,0.5-0.9,0.7
				c-0.3,0.2-0.6,0.5-0.9,0.7c-0.3,0.2-0.6,0.5-0.9,0.8c-0.3,0.3-0.6,0.6-0.9,0.9v27.2c0,1.9,0.1,3.2,0.2,4c0,0.2,0.2,0.4,0.5,0.7
				c0,0,0.1,0,0.2,0.1c0.2,0,0.4,0.1,0.8,0.2c0.4,0.1,0.9,0.1,1.4,0.1h0.7c1.2,0,2.3,0.3,3.1,0.9c1,0.8,1.6,2.1,1.8,3.9v0.2
				c0,0.3,0,0.6-0.1,0.9c0,0.3-0.1,0.5-0.2,0.8c-0.1,0.3-0.2,0.5-0.3,0.8c-0.1,0.3-0.2,0.5-0.4,0.8c-0.3,0.4-0.7,0.7-1.1,1
				c-0.4,0.3-0.9,0.5-1.4,0.7c-0.5,0.2-0.9,0.2-1.4,0.2h-0.1c-4.5-0.2-8.6-0.4-12.1-0.4c-1.7,0-3.6,0-5.6,0.1c-2,0-4.2,0.1-6.4,0.3
				H348C346.5,120.4,345.3,119.8,344.4,118.5z"/>
		</g>
	</g>
</g>
<g>
	<g transform="translate(1063.963003, 351.431254)">
		<g>
			<path class="st3" d="M361,116.7c-3.5-3.2-5.3-7.2-5.3-12c0-5.9,2-10.4,6.1-13.4c3.7-2.7,8-4.5,13-5.2c4-0.7,9-1.2,15-1.6v-6.4
				c0-1.6-0.2-3-0.5-4c-0.3-1.1-0.9-1.9-1.6-2.6c-0.5-0.6-1.4-1.1-2.6-1.5c-1.2-0.4-2.6-0.6-4.4-0.6c-0.6,0-1.2,0.1-1.7,0.2
				c-0.5,0.1-1,0.3-1.5,0.5c-0.5,0.2-0.9,0.5-1.3,0.8c-0.5,0.5-1,1-1.2,1.6c-0.3,0.6-0.4,1.3-0.4,2.2c0,0.6,0.1,1.1,0.4,1.4
				c0.4,0.6,0.8,1.1,1.3,1.5c0.1,0,0.3,0,0.5,0.1c0.3,0.1,0.5,0.2,0.7,0.3c0.2,0.2,0.4,0.5,0.6,0.9c0.2,0.5,0.3,1.1,0.3,1.8
				c0,0.7-0.2,1.4-0.5,2c-0.3,0.6-0.6,1-0.9,1.2c-0.2,0.2-0.6,0.5-1.2,0.9c-1.6,1.2-3.3,1.8-5.4,1.8c-3.3,0-5.9-1.2-7.8-3.6
				c-1.8-2.2-2.7-4.9-2.7-7.9c0-5.2,2.3-9.1,7-11.5c4.1-2.2,8.9-3.3,14.5-3.3c2.2,0,4.4,0.1,6.4,0.4c2,0.3,3.9,0.7,5.7,1.3
				c1.8,0.6,3.4,1.4,4.9,2.3c1.7,1,3.1,2.3,4.2,3.9c1.1,1.6,1.9,3.4,2.4,5.4c0.5,2,0.8,4.2,0.8,6.6V107c0,0.3,0,0.6,0.1,0.9
				c0,0.3,0.1,0.5,0.2,0.8c0.1,0.2,0.2,0.5,0.4,0.8c0.1,0.3,0.2,0.6,0.4,0.9c0.2,0.3,0.5,0.5,0.8,0.7c0.3,0.1,0.7,0.2,1.4,0.2
				c1.3,0,2.4,0.3,3.2,1c0.9,0.9,1.4,2.1,1.4,3.7c0,2.4-1.4,4-4.2,4.8c-1.7,0.5-3.4,0.8-5.1,0.8c-3.6,0-6.8-1.1-9.6-3.1
				c-1.2-0.9-2.3-2-3-3.3c-0.4,0.4-0.8,0.8-1.2,1.1c-0.4,0.3-0.8,0.7-1.3,1c-0.4,0.3-0.9,0.6-1.4,0.8c-0.5,0.2-1,0.5-1.5,0.8
				c-3.7,1.8-7.8,2.7-12.1,2.7C368.8,121.5,364.4,119.9,361,116.7z M383.8,107.7c0.5-0.2,0.9-0.5,1.3-0.8c0.4-0.3,0.8-0.6,1.2-1
				c0.3-0.4,0.7-0.8,1-1.2c0.3-0.4,0.6-0.9,0.8-1.4c1.1-1.9,1.6-3.9,1.6-6.2v-3.5c-6.1,0.7-10.3,1.8-12.8,3.3
				c-2.4,1.5-3.6,3.9-3.6,7.4c0,2,0.3,3.4,1,4s1.9,1,3.7,1c1.1,0,2.1-0.1,3.1-0.4C382.1,108.6,383,108.2,383.8,107.7z"/>
		</g>
	</g>
</g>
<g>
	<g transform="translate(1107.814151, 351.431254)">
		<g>
			<path class="st3" d="M370,118.4c-0.6-0.9-0.9-2-0.9-3.3v-0.2c0.2-2,0.9-3.4,2.1-4.1c0.8-0.5,2-0.7,3.5-0.7c1.3,0,2.1-0.1,2.4-0.4
				c0.3-0.3,0.5-0.5,0.5-0.7c0.2-0.8,0.2-2.1,0.2-4v-57c0-0.9,0-1.7-0.1-2.4c0-0.7-0.1-1.3-0.1-1.6l-0.5-0.6
				c-0.3-0.2-1.1-0.4-2.5-0.4c-1.5,0-2.7-0.3-3.6-0.8c-1.4-0.9-2.1-2.3-2.1-4.4c0-1.1,0.3-2.1,1-3c0.8-1.1,1.9-1.8,3.4-2
				c3.7-0.5,6.4-1,8.2-1.6c1.8-0.6,3-1,3.5-1.2c0.8-0.2,1.3-0.4,1.6-0.5c0.3-0.1,0.6-0.2,1.1-0.3c0.4-0.1,0.9-0.1,1.3-0.1
				c1.4,0,2.6,0.5,3.6,1.5c1,1,1.5,2.2,1.5,3.6v31.3c0.2-0.2,0.4-0.4,0.5-0.5c0.1-0.1,0.2-0.2,0.4-0.4c0.6-0.5,1.2-0.9,1.9-1.3
				c0.7-0.4,1.3-0.8,2-1.1c0.7-0.3,1.5-0.7,2.3-1c0.9-0.3,1.8-0.6,2.8-0.8c1-0.2,2-0.3,3-0.5c1-0.1,2.1-0.2,3.2-0.2
				c6.1,0,11,1.9,14.7,5.7c3.7,3.7,5.5,8.6,5.5,14.6v24.9c0,1.9,0,3.2,0.1,4.1c0.1,0.2,0.2,0.3,0.5,0.6c0.3,0.2,1.1,0.4,2.5,0.4h0.7
				c1.4,0,2.5,0.3,3.4,1c0.8,0.8,1.4,2,1.5,3.8v0.2c0,1.2-0.3,2.3-0.9,3.3c-0.9,1.3-2.2,2-3.7,2h-0.1c-4.6-0.2-8.6-0.4-12.1-0.4
				c-1.2,0-2.4,0-3.7,0.1c-1.3,0-2.6,0.1-4,0.1c-1.4,0-2.8,0.1-4.3,0.2h-0.1c-1.6,0-2.9-0.7-3.9-2c-0.6-0.9-0.9-2-0.9-3.3v-0.2
				c0.2-2,0.9-3.4,2.1-4.1c0.8-0.5,2-0.7,3.5-0.7c1.3,0,2.1-0.1,2.5-0.4c0.3-0.2,0.5-0.4,0.5-0.6c0-0.2,0-0.5,0.1-0.9
				c0-0.3,0.1-0.8,0.1-1.4c0-0.6,0-1.2,0-1.8V80.4c0-1.4-0.2-2.6-0.6-3.5c-0.4-1-1-1.8-1.8-2.5c-0.9-0.7-1.8-1.2-2.7-1.6
				c-0.9-0.4-2-0.5-3.1-0.5c-0.4,0-0.8,0-1.1,0.1c-0.3,0-0.7,0.1-1,0.1c-0.3,0-0.7,0.1-1,0.1c-0.3,0-0.6,0.1-0.9,0.2
				c-0.3,0.1-0.6,0.2-0.9,0.3c-0.3,0.1-0.6,0.2-0.9,0.3c-0.3,0.2-0.6,0.3-0.8,0.4l-0.9,0.7c-1.9,1.2-3.2,2.4-4,3.6v27.1
				c0,1.9,0,3.2,0.1,4.1l0.5,0.6c0,0,0.1,0,0.2,0.1c0.2,0,0.4,0.1,0.8,0.2c0.4,0.1,0.9,0.1,1.4,0.1h0.7c1.4,0,2.5,0.3,3.4,1
				c0.8,0.8,1.3,2,1.5,3.8v0.2c0,0.3,0,0.6-0.1,0.9c0,0.3-0.1,0.5-0.2,0.8c-0.1,0.3-0.2,0.5-0.3,0.8c-0.1,0.3-0.2,0.5-0.4,0.8
				c-0.4,0.6-0.9,1.1-1.6,1.4c-0.7,0.4-1.4,0.5-2.1,0.5h-0.1c-4.5-0.2-8.6-0.4-12.1-0.4c-1.7,0-3.6,0-5.6,0.1c-2,0-4.2,0.1-6.4,0.3
				h-0.1C372.2,120.4,370.9,119.8,370,118.4z"/>
		</g>
	</g>
</g>
<g>
	<g transform="translate(1159.367722, 351.431254)">
		<g>
			<path class="st3" d="M392.8,116.7c-3.5-3.2-5.3-7.2-5.3-12c0-5.9,2-10.4,6.1-13.4c3.7-2.7,8-4.5,13-5.2c4-0.7,9-1.2,15-1.6v-6.4
				c0-1.6-0.2-3-0.5-4c-0.3-1.1-0.9-1.9-1.6-2.6c-0.5-0.6-1.4-1.1-2.6-1.5c-1.2-0.4-2.6-0.6-4.4-0.6c-0.6,0-1.2,0.1-1.7,0.2
				c-0.5,0.1-1,0.3-1.5,0.5c-0.5,0.2-0.9,0.5-1.3,0.8c-0.5,0.5-1,1-1.2,1.6c-0.3,0.6-0.4,1.3-0.4,2.2c0,0.6,0.1,1.1,0.4,1.4
				c0.4,0.6,0.8,1.1,1.3,1.5c0.1,0,0.3,0,0.5,0.1c0.3,0.1,0.5,0.2,0.7,0.3c0.2,0.2,0.4,0.5,0.6,0.9c0.2,0.5,0.3,1.1,0.3,1.8
				c0,0.7-0.2,1.4-0.5,2c-0.3,0.6-0.6,1-0.9,1.2c-0.2,0.2-0.6,0.5-1.2,0.9c-1.6,1.2-3.3,1.8-5.4,1.8c-3.3,0-5.9-1.2-7.8-3.6
				c-1.8-2.2-2.7-4.9-2.7-7.9c0-5.2,2.3-9.1,7-11.5c4.1-2.2,8.9-3.3,14.5-3.3c2.2,0,4.4,0.1,6.4,0.4c2,0.3,3.9,0.7,5.7,1.3
				c1.8,0.6,3.4,1.4,4.9,2.3c1.7,1,3.1,2.3,4.2,3.9c1.1,1.6,1.9,3.4,2.4,5.4c0.5,2,0.8,4.2,0.8,6.6V107c0,0.3,0,0.6,0.1,0.9
				c0,0.3,0.1,0.5,0.2,0.8c0.1,0.2,0.2,0.5,0.4,0.8c0.1,0.3,0.2,0.6,0.4,0.9c0.2,0.3,0.5,0.5,0.8,0.7c0.3,0.1,0.7,0.2,1.4,0.2
				c1.3,0,2.4,0.3,3.2,1c0.9,0.9,1.4,2.1,1.4,3.7c0,2.4-1.4,4-4.2,4.8c-1.7,0.5-3.4,0.8-5.1,0.8c-3.6,0-6.8-1.1-9.6-3.1
				c-1.2-0.9-2.3-2-3-3.3c-0.4,0.4-0.8,0.8-1.2,1.1c-0.4,0.3-0.8,0.7-1.3,1c-0.4,0.3-0.9,0.6-1.4,0.8c-0.5,0.2-1,0.5-1.5,0.8
				c-3.7,1.8-7.8,2.7-12.1,2.7C400.6,121.5,396.2,119.9,392.8,116.7z M415.6,107.7c0.5-0.2,0.9-0.5,1.3-0.8c0.4-0.3,0.8-0.6,1.2-1
				c0.3-0.4,0.7-0.8,1-1.2c0.3-0.4,0.6-0.9,0.8-1.4c1.1-1.9,1.6-3.9,1.6-6.2v-3.5c-6.1,0.7-10.3,1.8-12.8,3.3
				c-2.4,1.5-3.6,3.9-3.6,7.4c0,2,0.3,3.4,1,4c0.7,0.7,1.9,1,3.7,1c1.1,0,2.1-0.1,3.1-0.4C413.9,108.6,414.8,108.2,415.6,107.7z"/>
		</g>
	</g>
</g>
<g>
	<g transform="translate(1203.218871, 351.431254)">
		<g>
			<path class="st3" d="M403.2,118.5c-0.7-1-1.1-2.1-1.1-3.4v-0.2c0.2-2,0.9-3.4,2.1-4.1c0.9-0.5,2-0.7,3.5-0.7c0.6,0,1,0,1.4-0.1
				c0.4-0.1,0.7-0.1,0.8-0.2c0.2,0,0.2-0.1,0.2-0.1c0.3-0.3,0.5-0.5,0.5-0.7c0.2-0.8,0.2-2.1,0.2-4V78.4c0-1.9,0-3.2-0.1-4.1
				c-0.1-0.2-0.2-0.3-0.5-0.6c0,0,0,0-0.1,0c0,0-0.1,0-0.3-0.1c-0.2,0-0.3-0.1-0.5-0.1c-0.2,0-0.4-0.1-0.7-0.1
				c-0.3,0-0.6-0.1-0.9-0.1c-1.5,0-2.7-0.3-3.6-0.8c-1.4-0.9-2.1-2.3-2.1-4.4c0-1.1,0.4-2.1,1.1-3c0.8-1.1,1.9-1.8,3.4-2
				c0.9-0.2,1.9-0.3,2.8-0.5c0.9-0.2,1.7-0.3,2.6-0.5c0.8-0.2,1.6-0.4,2.4-0.6c0.8-0.2,1.5-0.4,2.1-0.6c0.7-0.2,1.3-0.4,1.9-0.6
				l0.1-0.1h0.1c1.4-0.4,2.4-0.7,3-0.8h0.8c1.4,0,2.5,0.5,3.4,1.6c0.9,1,1.4,2.2,1.4,3.5v0.8c1-0.9,2-1.6,3-2.2c1-0.6,2-1.1,3.2-1.6
				c2.7-1.1,5.8-1.6,9.2-1.6c2.1,0,4.1,0.2,6,0.7c1.9,0.5,3.6,1.2,5.2,2.1c0.5,0.3,1,0.7,1.5,1c0.5,0.3,1,0.7,1.5,1.2
				c0.5,0.4,0.9,0.9,1.3,1.3c0.4,0.4,0.7,0.8,1,1.2c0.4-0.3,0.8-0.6,1.1-0.9c0.4-0.3,0.7-0.5,0.9-0.7c0.3-0.2,0.6-0.4,1-0.8
				c1.2-0.9,2.5-1.8,3.7-2.5c3.2-1.8,7.2-2.7,12.1-2.7c6.1,0,11,1.9,14.7,5.7c3.7,3.7,5.5,8.6,5.5,14.6v24.9c0,0.4,0,0.8,0,1.1
				c0,0.3,0,0.7,0,0.9c0,0.3,0,0.6,0,0.8c0,0.3,0.1,0.5,0.1,0.6c0,0.2,0,0.3,0.1,0.5l0.5,0.7c0.3,0.2,1.1,0.4,2.5,0.4h0.7
				c1.2,0,2.3,0.3,3.1,0.9c0.5,0.4,0.8,0.9,1.1,1.4c0.3,0.5,0.4,0.9,0.5,1.2c0,0.2,0.1,0.7,0.2,1.3v0.2c0,1.2-0.3,2.4-1,3.4
				c-1,1.2-2.3,1.9-3.8,1.9H502c-2.3-0.2-4.4-0.2-6.4-0.3c-2,0-3.9-0.1-5.7-0.1c-0.7,0-1.4,0-2.2,0c-0.7,0-1.5,0-2.3,0.1
				c-0.8,0-1.6,0.1-2.4,0.1c-0.8,0-1.6,0-2.5,0c-0.9,0-1.8,0.1-2.7,0.2h-0.1c-1.6,0-2.9-0.7-3.9-2c-0.6-0.9-0.9-2-0.9-3.3v-0.2
				c0.2-2,0.9-3.4,2.1-4.1c0.4-0.2,0.8-0.4,1.3-0.5c0.5-0.1,0.8-0.2,1.1-0.2c0.2,0,0.6,0,1.2,0c1.3,0,2.1-0.1,2.4-0.4
				c0.3-0.3,0.5-0.5,0.5-0.7c0.2-0.8,0.2-2.1,0.2-4V80.4c0-2.6-0.8-4.6-2.3-5.9c-1.7-1.5-3.7-2.2-6-2.2c-3,0-5.3,0.7-7,2
				c-1.6,1.2-2.8,2.5-3.6,3.9v27.1c0,0.2,0,0.3,0,0.5c0,0.2,0,0.4,0,0.7c0,0.3,0,0.6,0,0.9c0,0.3,0,0.7-0.1,1.2
				c0,0.7,0.1,1.1,0.4,1.3c0,0.1,0.1,0.1,0.2,0.2c0.2,0,0.4,0.1,0.8,0.2c0.4,0.1,0.9,0.1,1.4,0.1h0.7c1.4,0,2.5,0.3,3.4,1
				c0.9,0.8,1.4,2,1.5,3.8v0.2c0,1.2-0.3,2.3-0.9,3.3c-0.9,1.3-2.2,2-3.8,2h-0.1c-4.6-0.2-8.5-0.4-11.8-0.4c-1.6,0-3.3,0-5.2,0.1
				c-1.9,0-4,0.1-6.3,0.3h-0.1c-1.6,0-2.9-0.7-3.9-2c-0.6-0.9-0.9-2-0.9-3.3v-0.2c0.2-2,0.9-3.4,2.1-4.1c0.9-0.5,2-0.7,3.5-0.7
				c1.1,0,1.9-0.1,2.3-0.4c0.3-0.5,0.5-1.2,0.5-1.9c-0.1-0.3-0.1-0.6-0.1-0.9c0-0.3,0-0.6,0-0.8c0-0.2,0-0.4,0-0.6
				c0-0.2,0-0.3,0-0.5V80.4c0-0.6,0-1.2-0.1-1.7c-0.1-0.5-0.2-1-0.3-1.4c-0.1-0.4-0.3-0.8-0.5-1.2c-0.2-0.4-0.4-0.7-0.6-1
				c-0.2-0.3-0.5-0.6-0.8-0.9c-0.9-0.7-1.8-1.2-2.7-1.6c-0.9-0.4-2-0.5-3.1-0.5c-3,0-5.3,0.7-7,2c-1.6,1.2-2.9,2.6-3.8,4v27
				c0,1.9,0.1,3.2,0.2,4l0.5,0.7c0.3,0.2,1.1,0.4,2.5,0.4h0.7c1.2,0,2.3,0.3,3.2,0.9c1,0.8,1.6,2.1,1.8,3.9v0.2c0,0.3,0,0.6-0.1,0.9
				c0,0.3-0.1,0.5-0.2,0.8c-0.1,0.3-0.2,0.5-0.3,0.8c-0.1,0.3-0.2,0.5-0.4,0.8c-0.5,0.6-1.1,1.1-1.8,1.4c-0.7,0.4-1.4,0.5-2.1,0.5
				h-0.1c-4.5-0.2-8.6-0.4-12.1-0.4c-1.7,0-3.6,0-5.6,0.1c-2,0-4.1,0.1-6.4,0.3h-0.1C405.4,120.4,404.2,119.8,403.2,118.5z"/>
		</g>
	</g>
</g>
<g>
	<g transform="translate(720.689797, 473.681247)">
		<g>
			<path class="st3" d="M288.7,106.2c0.2-0.6,0.5-1.1,0.8-1.5c0.3-0.4,0.5-0.6,0.7-0.8c0.2-0.1,0.5-0.3,0.8-0.5
				c0.3-0.2,0.6-0.3,0.6-0.4c0.8-0.5,1.5-1.2,2.1-2.1c0.5-0.8,0.8-1.8,0.8-2.9c0-2.6-0.9-4.7-2.6-6.2c-1.8-1.6-4.4-2.3-7.9-2.3
				c-4.1,0-7.8,1.2-11,3.5c-3.2,2.3-5.7,5.8-7.6,10.5c-1.9,4.8-2.9,10.6-2.9,17.4c0,5.8,1,11.1,3,15.9c2,4.6,4.9,8.2,8.5,10.9
				c3.5,2.6,7.5,4,12.1,4c3,0,5.5-0.5,7.7-1.4c0.5-0.2,1.1-0.5,1.6-0.8c2.6-1.5,4.9-3.8,6.9-7.1c0.2-0.4,0.5-0.7,0.8-1
				c0.3-0.3,0.7-0.6,1-0.9c0.4-0.3,0.8-0.5,1.2-0.6c0.4-0.2,0.8-0.2,1.2-0.2c1.2,0,2.4,0.4,3.6,1.2h0.1c2.1,1.5,3.2,3.1,3.2,5
				c0,0.3,0,0.6-0.1,0.9c-0.1,0.3-0.2,0.5-0.3,0.8c-0.1,0.3-0.2,0.5-0.4,0.8c-0.1,0.2-0.2,0.5-0.4,0.7c-1.6,1.9-3.1,3.5-4.5,5
				c-1.4,1.5-2.9,2.8-4.4,3.9c-1.6,1.2-3.4,2.1-5.1,2.9c-1.4,0.6-2.8,1.1-4.3,1.4c-3.3,0.8-7.3,1.2-12.1,1.2
				c-7.2,0-13.7-1.7-19.6-5.1c-5.9-3.4-10.6-8.3-14.1-14.6c-3.5-6.3-5.3-13.6-5.3-21.8c0-4.1,0.4-8,1.2-11.7
				c0.8-3.7,2.1-7.2,3.8-10.5c3.3-6.5,8.2-11.5,14.5-15c6.2-3.6,13.3-5.4,21.6-5.4c7.2,0,13.5,1.4,19.1,4.3c1.2,0.6,2.4,1.3,3.3,2.2
				c1,0.8,1.8,1.7,2.6,2.6c0.8,0.9,1.4,1.9,1.9,3c0.5,1.1,0.9,2.2,1.2,3.4c0.3,1.2,0.4,2.5,0.4,3.8c0.1,4.2-1.2,7.8-3.9,10.9
				c-1.4,1.6-3,2.7-4.9,3.5c-1.9,0.8-3.9,1.2-6.1,1.2c-1.9,0-3.5-0.3-4.9-1c-0.3-0.2-0.6-0.4-0.9-0.6c-0.3-0.2-0.6-0.4-0.9-0.6
				c-0.3-0.2-0.5-0.4-0.8-0.7c-0.2-0.3-0.5-0.6-0.7-0.9C288.9,108.8,288.6,107.5,288.7,106.2z"/>
		</g>
	</g>
</g>
<g>
	<g transform="translate(776.619726, 473.681247)">
		<g>
			<path class="st3" d="M265.2,157.4c-3.5-3.2-5.3-7.2-5.3-12c0-5.9,2-10.4,6.1-13.4c3.7-2.7,8-4.5,13-5.2c4-0.7,9-1.2,15-1.6v-6.4
				c0-1.6-0.2-3-0.5-4c-0.3-1.1-0.9-1.9-1.6-2.6c-0.5-0.6-1.4-1.1-2.6-1.5c-1.2-0.4-2.6-0.6-4.4-0.6c-0.6,0-1.2,0.1-1.7,0.2
				c-0.5,0.1-1,0.3-1.5,0.5c-0.5,0.2-0.9,0.5-1.3,0.8c-0.5,0.5-1,1-1.2,1.6c-0.3,0.6-0.4,1.3-0.4,2.2c0,0.6,0.1,1.1,0.4,1.4
				c0.4,0.6,0.8,1.1,1.3,1.5c0.1,0,0.3,0,0.5,0.1c0.3,0.1,0.5,0.2,0.7,0.3c0.2,0.2,0.4,0.5,0.6,0.9c0.2,0.5,0.3,1.1,0.3,1.8
				c0,0.7-0.2,1.4-0.5,2c-0.3,0.6-0.6,1-0.9,1.2c-0.2,0.2-0.6,0.5-1.2,0.9c-1.6,1.2-3.3,1.8-5.4,1.8c-3.3,0-5.9-1.2-7.8-3.6
				c-1.8-2.2-2.7-4.9-2.7-7.9c0-5.2,2.3-9.1,7-11.5c4.1-2.2,8.9-3.3,14.5-3.3c2.2,0,4.4,0.1,6.4,0.4c2,0.3,3.9,0.7,5.7,1.3
				c1.8,0.6,3.4,1.4,4.9,2.3c1.7,1,3.1,2.3,4.2,3.9c1.1,1.6,1.9,3.4,2.4,5.4c0.5,2,0.8,4.2,0.8,6.6v27.1c0,0.3,0,0.6,0.1,0.9
				c0,0.3,0.1,0.5,0.2,0.8c0.1,0.2,0.2,0.5,0.4,0.8c0.1,0.3,0.2,0.6,0.4,0.9c0.2,0.3,0.5,0.5,0.8,0.7c0.3,0.1,0.7,0.2,1.4,0.2
				c1.3,0,2.4,0.3,3.2,1c0.9,0.9,1.4,2.1,1.4,3.7c0,2.4-1.4,4-4.2,4.8c-1.7,0.5-3.4,0.8-5.1,0.8c-3.6,0-6.8-1.1-9.6-3.1
				c-1.2-0.9-2.3-2-3-3.3c-0.4,0.4-0.8,0.8-1.2,1.1c-0.4,0.3-0.8,0.7-1.3,1c-0.4,0.3-0.9,0.6-1.4,0.8c-0.5,0.2-1,0.5-1.5,0.8
				c-3.7,1.8-7.8,2.7-12.1,2.7C273,162.2,268.6,160.6,265.2,157.4z M288.1,148.4c0.5-0.2,0.9-0.5,1.3-0.8c0.4-0.3,0.8-0.6,1.2-1
				c0.3-0.4,0.7-0.8,1-1.2c0.3-0.4,0.6-0.9,0.8-1.4c1.1-1.9,1.6-3.9,1.6-6.2v-3.5c-6.1,0.7-10.3,1.8-12.8,3.3
				c-2.4,1.5-3.6,3.9-3.6,7.4c0,2,0.3,3.4,1,4s1.9,1,3.7,1c1.1,0,2.1-0.1,3.1-0.4C286.3,149.4,287.2,149,288.1,148.4z"/>
		</g>
	</g>
</g>
<g>
	<g transform="translate(820.470886, 473.681247)">
		<g>
			<path class="st3" d="M282.4,158.6c-4.9-2.7-7.4-6.7-7.4-11.8c0-3,1-5.5,2.9-7.5c0.9-1,2-1.8,3.3-2.3c1.3-0.5,2.6-0.8,4-0.8
				c0.5,0,0.9,0,1.3,0.1c0.4,0.1,0.9,0.2,1.3,0.3c0.4,0.1,0.8,0.3,1.2,0.5c0.4,0.2,0.8,0.4,1.2,0.8c0.1,0,0.2,0.1,0.5,0.3
				c0.3,0.2,0.5,0.4,0.6,0.5c0.1,0.1,0.3,0.3,0.5,0.5c0.2,0.2,0.4,0.5,0.5,0.7c0.1,0.2,0.2,0.5,0.4,0.9c0.1,0.3,0.2,0.7,0.2,1.1
				c0,0.7-0.1,1.3-0.2,1.8c-0.2,0.5-0.3,0.8-0.5,0.9c-0.2,0.1-0.5,0.3-0.8,0.5c-0.3,0.2-0.5,0.3-0.6,0.4c-0.4,0.4-0.6,1.1-0.6,2
				c0,1.2,0.6,2.2,1.9,3c1.6,1.1,4.2,1.6,7.7,1.6c3,0,5.2-0.6,6.8-1.8c1.3-1,2-2.5,2-4.4c0-0.6-0.1-1.1-0.2-1.6
				c-0.2-0.4-0.4-0.8-0.7-1.2c-0.5-0.5-1-0.9-1.5-1.2c-0.5-0.3-1.2-0.7-1.9-1c-0.8-0.3-1.8-0.7-3-1c-1.2-0.4-2.6-0.8-4-1.3
				c-1.9-0.5-3.7-1.1-5.4-1.7c-1.6-0.6-3.1-1.1-4.3-1.7c-1.5-0.6-2.8-1.4-4-2.4c-1.2-1-2.3-2.1-3.3-3.4c-2.1-2.7-3.1-6.1-3.1-10.3
				c0-4,1.2-7.4,3.7-10.3c1.2-1.4,2.5-2.6,4-3.6c1.5-1,3.2-1.9,5.1-2.6c1.2-0.4,2.4-0.7,3.6-1c1.2-0.3,2.4-0.5,3.7-0.6
				c1.3-0.2,2.6-0.2,4-0.2c5.1,0,9.6,1.1,13.4,3.3c4.4,2.6,6.5,6.1,6.5,10.7c0,2.8-0.9,5.2-2.7,7.2c-1.9,2.2-4.3,3.2-7.2,3.2
				c-1.9,0-3.5-0.5-5-1.6c-0.1,0-0.3-0.1-0.5-0.3c-0.3-0.2-0.5-0.3-0.6-0.5c-0.1-0.1-0.3-0.3-0.5-0.5c-0.2-0.2-0.4-0.5-0.5-0.7
				c-0.1-0.2-0.2-0.5-0.4-0.9c-0.1-0.3-0.2-0.7-0.2-1.1c0-0.7,0.1-1.3,0.3-1.8c0.2-0.5,0.4-0.8,0.6-0.9c0.2-0.1,0.4-0.2,0.6-0.3
				c0.2-0.1,0.4-0.2,0.5-0.2c0.4-0.4,0.8-0.9,1.2-1.4c0.2-0.2,0.2-0.4,0.2-0.8c-0.1-1.1-0.7-1.9-1.8-2.6c-1.5-0.9-3.3-1.3-5.4-1.3
				l-1.4,0.1c-0.9,0.1-1.8,0.2-2.6,0.5c-0.8,0.2-1.5,0.6-2.2,1c-1.3,0.8-2,1.8-2,3.2c0,0.8,0.1,1.6,0.2,2.1c0.2,0.5,0.4,1,0.6,1.4
				c0.2,0.2,0.4,0.5,0.7,0.7c0.2,0.2,0.5,0.5,0.9,0.7c0.4,0.2,0.9,0.5,1.4,0.7c0.9,0.4,2,0.8,3.4,1.3c1.4,0.5,3.2,1.1,5.2,1.7
				c1,0.4,2,0.7,2.9,1.1c0.9,0.3,1.8,0.6,2.7,0.9c0.9,0.3,1.7,0.6,2.4,0.9c0.8,0.3,1.4,0.6,2,0.9c2.8,1.3,5,3.1,6.7,5.5
				c1.7,2.4,2.6,5.5,2.6,9.2c0,1.9-0.3,3.7-0.9,5.4c-0.6,1.8-1.4,3.4-2.5,5c-1.1,1.6-2.4,2.9-3.9,4.1c-1.5,1.2-3.1,2.1-5,2.9
				c-2.7,1.2-5.7,2-9,2.3c-1,0.1-2.1,0.1-3.1,0.1C292.2,162.2,286.6,161,282.4,158.6z"/>
		</g>
	</g>
</g>
<g>
	<g transform="translate(859.24547, 473.681247)">
		<g>
			<path class="st3" d="M299.7,157.7c-3.3-3.3-4.9-8-4.9-14v-31.3l-3.9,0.1c-0.5,0-0.9-0.1-1.4-0.2c-0.5-0.2-0.9-0.4-1.2-0.6
				c-0.3-0.3-0.6-0.6-0.9-1c-0.2-0.3-0.4-0.6-0.6-1c-0.2-0.4-0.3-0.7-0.4-1.1c-0.1-0.3-0.1-0.7-0.1-1.1c0-1.2,0.2-2.2,0.7-3.1
				c0.7-1.3,1.8-2.2,3.2-2.5c2.3-0.5,4-1.1,5.1-2c1.2-0.9,2-1.9,2.6-2.9c0.2-0.5,0.3-1,0.6-1.6c0.2-0.6,0.5-1.3,0.8-2.1
				c0.3-0.8,0.6-1.7,0.9-2.7c0.3-0.7,0.8-1.3,1.4-1.9c0.6-0.5,1.2-0.9,1.9-1.2c0.7-0.2,1.4-0.4,2.1-0.4c1,0,2,0.2,2.9,0.7
				c1.6,0.8,2.5,2.1,2.5,3.9V92l-0.6,9.9l10.4-0.6h0.4c1.5,0,2.6,0.6,3.3,1.6c0.8,1.1,1.1,2.2,1.1,3.5c0,1.2-0.2,2.3-0.6,3.4
				c-0.8,2-2,3-3.7,3l-10.2-0.2v32.5c0,2,0.4,3.6,1.2,4.9c0.5,0.8,1.4,1.2,2.7,1.2c1,0,1.9-0.1,2.8-0.2c0.9-0.2,1.7-0.4,2.5-0.8h0.1
				c1.3-0.6,2.3-0.8,2.9-0.8c0.7,0,1.4,0.2,2,0.5c0.7,0.3,1.2,0.8,1.6,1.3c0.5,0.5,0.9,1.3,1.3,2.2c0,0,0.1,0.6,0.4,1.8
				c0,1.2-0.6,2.3-1.8,3.2l-0.1,0.1l-0.1,0.1c-2.6,1.6-5,2.8-7.2,3.4c-2.2,0.5-4.9,0.8-7.8,0.8C307,162.8,303,161.1,299.7,157.7z"/>
		</g>
	</g>
</g>
<g>
	<g transform="translate(892.418308, 473.681247)">
		<g>
			<path class="st3" d="M313.1,158c-4.5-2.7-7.9-6.5-10.3-11.3c-2.3-4.7-3.5-9.8-3.5-15.5c0-5.1,1.2-9.9,3.5-14.6
				c2.4-4.7,5.8-8.5,10.1-11.4c4.4-3,9.5-4.4,15.3-4.4c7.7,0,13.7,2,18,6.1c4.3,4.1,6.7,9.5,7.4,16.2v0.2c0,3.6-1.1,6.2-3.4,7.7
				c-1.9,1.2-4.4,1.9-7.7,1.9h-25.3c0.3,5.3,1.6,9.5,3.9,12.6c2.4,3.4,6.2,5.1,11.5,5.1c0.5,0,1.1,0,1.6-0.1c0.6,0,1.1-0.1,1.6-0.2
				c0.5-0.1,1-0.2,1.4-0.3c0.4-0.1,0.8-0.3,1.2-0.5c0.4-0.2,0.8-0.4,1.2-0.6c1.9-1.2,3.9-3.3,5.7-6.3l0.1-0.4l0.2-0.2
				c0.5-0.4,1-0.7,1.5-1c0.6-0.3,1.1-0.4,1.8-0.4c0.2,0,0.5,0,0.8,0.1c0.3,0.1,0.6,0.2,0.9,0.2c0.3,0.1,0.5,0.2,0.8,0.3
				c0.2,0.1,0.4,0.2,0.6,0.3c1.6,1.1,2.5,2.6,2.5,4.6c0,0.5-0.1,0.9-0.2,1.3c-0.1,0.4-0.3,0.9-0.5,1.3c-1.3,2-2.8,3.9-4.6,5.6
				c-1.7,1.7-3.6,3.1-5.6,4.3c-4.1,2.4-8.8,3.6-14,3.6C323.2,162.2,317.7,160.8,313.1,158z M333.2,122.5c1.4,0,2.3-0.2,2.7-0.5
				c0.4-0.3,0.6-0.9,0.7-1.6c0-0.5,0-0.9-0.1-1.3c0-0.4-0.1-0.8-0.2-1.2c-0.1-0.4-0.1-0.8-0.2-1.1c-0.1-0.3-0.2-0.7-0.3-1
				c-0.1-0.3-0.2-0.6-0.4-0.9c-0.2-0.3-0.3-0.6-0.5-0.9c-0.2-0.3-0.4-0.6-0.6-0.9c-0.7-0.8-1.5-1.5-2.5-1.9
				c-0.9-0.4-2.1-0.6-3.5-0.6c-3,0-5.6,1.2-7.6,3.6c-1.6,2.1-2.7,4.9-3.3,8.3H333.2z"/>
		</g>
	</g>
</g>
<g>
	<g transform="translate(936.356992, 473.681247)">
		<g>
			<path class="st3" d="M313.1,159.3c-0.8-1-1.2-2.1-1.2-3.4v-0.2c0.2-2,0.9-3.4,2.1-4.1c0.8-0.5,2-0.7,3.5-0.7
				c1.3,0,2.1-0.1,2.4-0.4c0.3-0.3,0.5-0.5,0.5-0.7c0.2-0.8,0.2-2.1,0.2-4v-57c0-0.9,0-1.7-0.1-2.4c0-0.7-0.1-1.3-0.1-1.6l-0.5-0.6
				c-0.3-0.2-1.1-0.4-2.5-0.4c-1.5,0-2.7-0.3-3.6-0.8c-1.4-0.9-2.1-2.3-2.1-4.4c0-1.1,0.3-2.1,1-3c0.8-1.1,1.9-1.8,3.4-2
				c4.7-0.6,8.6-1.5,11.9-2.8c0.7-0.3,1.3-0.5,1.9-0.6c0.6-0.1,1.1-0.2,1.5-0.3h0.7c1.4,0,2.5,0.5,3.4,1.6c0.9,1,1.4,2.2,1.4,3.6
				v70.8c0,1.9,0.1,3.2,0.2,4l0.5,0.7c0,0,0.1,0,0.2,0.1c0.2,0,0.4,0.1,0.8,0.2c0.4,0.1,0.9,0.1,1.4,0.1h0.7c1.2,0,2.3,0.3,3.1,0.9
				c1,0.8,1.6,2.1,1.8,3.9v0.2c0,0.2,0,0.3,0,0.5c0,0.2,0,0.3-0.1,0.5c0,0.2-0.1,0.3-0.1,0.5c0,0.2-0.1,0.3-0.1,0.5
				c0,0.2-0.1,0.3-0.2,0.5c-0.1,0.2-0.1,0.3-0.2,0.5c-0.1,0.2-0.1,0.3-0.2,0.5c-0.3,0.4-0.7,0.7-1.1,1c-0.4,0.3-0.9,0.5-1.4,0.7
				c-0.5,0.2-0.9,0.2-1.4,0.2H341c-4.5-0.2-8.6-0.4-12.1-0.4c-1.7,0-3.6,0-5.6,0.1c-2,0-4.2,0.1-6.4,0.3h-0.1
				C315.1,161.2,313.9,160.5,313.1,159.3z"/>
		</g>
	</g>
</g>
<g>
	<g transform="translate(961.389797, 473.681247)">
		<g>
			<path class="st3" d="M321.4,159.3c-0.8-1-1.2-2.1-1.2-3.4v-0.2c0.2-2,0.9-3.4,2.1-4.1c0.8-0.5,2-0.7,3.5-0.7
				c1.3,0,2.1-0.1,2.4-0.4c0.3-0.3,0.5-0.5,0.5-0.7c0.2-0.8,0.2-2.1,0.2-4v-57c0-0.9,0-1.7-0.1-2.4c0-0.7-0.1-1.3-0.1-1.6l-0.5-0.6
				c-0.3-0.2-1.1-0.4-2.5-0.4c-1.5,0-2.7-0.3-3.6-0.8c-1.4-0.9-2.1-2.3-2.1-4.4c0-1.1,0.3-2.1,1-3c0.8-1.1,1.9-1.8,3.4-2
				c4.7-0.6,8.6-1.5,11.9-2.8c0.7-0.3,1.3-0.5,1.9-0.6c0.6-0.1,1.1-0.2,1.5-0.3h0.7c1.4,0,2.5,0.5,3.4,1.6c0.9,1,1.4,2.2,1.4,3.6
				v70.8c0,1.9,0.1,3.2,0.2,4l0.5,0.7c0,0,0.1,0,0.2,0.1c0.2,0,0.4,0.1,0.8,0.2c0.4,0.1,0.9,0.1,1.4,0.1h0.7c1.2,0,2.3,0.3,3.1,0.9
				c1,0.8,1.6,2.1,1.8,3.9v0.2c0,0.2,0,0.3,0,0.5c0,0.2,0,0.3-0.1,0.5c0,0.2-0.1,0.3-0.1,0.5c0,0.2-0.1,0.3-0.1,0.5
				c0,0.2-0.1,0.3-0.2,0.5c-0.1,0.2-0.1,0.3-0.2,0.5c-0.1,0.2-0.1,0.3-0.2,0.5c-0.3,0.4-0.7,0.7-1.1,1c-0.4,0.3-0.9,0.5-1.4,0.7
				c-0.5,0.2-0.9,0.2-1.4,0.2h-0.1c-4.5-0.2-8.6-0.4-12.1-0.4c-1.7,0-3.6,0-5.6,0.1c-2,0-4.2,0.1-6.4,0.3H325
				C323.4,161.2,322.2,160.5,321.4,159.3z"/>
		</g>
	</g>
</g>
<g>
	<g transform="translate(986.422602, 473.681247)">
		<g>
			<path class="st3" d="M335.1,157.4c-3.5-3.2-5.3-7.2-5.3-12c0-5.9,2-10.4,6.1-13.4c3.7-2.7,8-4.5,13-5.2c4-0.7,9-1.2,15-1.6v-6.4
				c0-1.6-0.2-3-0.5-4c-0.3-1.1-0.9-1.9-1.6-2.6c-0.5-0.6-1.4-1.1-2.6-1.5c-1.2-0.4-2.6-0.6-4.4-0.6c-0.6,0-1.2,0.1-1.7,0.2
				c-0.5,0.1-1,0.3-1.5,0.5c-0.5,0.2-0.9,0.5-1.3,0.8c-0.5,0.5-1,1-1.2,1.6c-0.3,0.6-0.4,1.3-0.4,2.2c0,0.6,0.1,1.1,0.4,1.4
				c0.4,0.6,0.8,1.1,1.3,1.5c0.1,0,0.3,0,0.5,0.1c0.3,0.1,0.5,0.2,0.7,0.3c0.2,0.2,0.4,0.5,0.6,0.9c0.2,0.5,0.3,1.1,0.3,1.8
				c0,0.7-0.2,1.4-0.5,2c-0.3,0.6-0.6,1-0.9,1.2c-0.2,0.2-0.6,0.5-1.2,0.9c-1.6,1.2-3.3,1.8-5.4,1.8c-3.3,0-5.9-1.2-7.8-3.6
				c-1.8-2.2-2.7-4.9-2.7-7.9c0-5.2,2.3-9.1,7-11.5c4.1-2.2,8.9-3.3,14.5-3.3c2.2,0,4.4,0.1,6.4,0.4c2,0.3,3.9,0.7,5.7,1.3
				c1.8,0.6,3.4,1.4,4.9,2.3c1.7,1,3.1,2.3,4.2,3.9c1.1,1.6,1.9,3.4,2.4,5.4c0.5,2,0.8,4.2,0.8,6.6v27.1c0,0.3,0,0.6,0.1,0.9
				c0,0.3,0.1,0.5,0.2,0.8c0.1,0.2,0.2,0.5,0.4,0.8c0.1,0.3,0.2,0.6,0.4,0.9c0.2,0.3,0.5,0.5,0.8,0.7c0.3,0.1,0.7,0.2,1.4,0.2
				c1.3,0,2.4,0.3,3.2,1c0.9,0.9,1.4,2.1,1.4,3.7c0,2.4-1.4,4-4.2,4.8c-1.7,0.5-3.4,0.8-5.1,0.8c-3.6,0-6.8-1.1-9.6-3.1
				c-1.2-0.9-2.3-2-3-3.3c-0.4,0.4-0.8,0.8-1.2,1.1c-0.4,0.3-0.8,0.7-1.3,1c-0.4,0.3-0.9,0.6-1.4,0.8c-0.5,0.2-1,0.5-1.5,0.8
				c-3.7,1.8-7.8,2.7-12.1,2.7C343,162.2,338.5,160.6,335.1,157.4z M358,148.4c0.5-0.2,0.9-0.5,1.3-0.8c0.4-0.3,0.8-0.6,1.2-1
				c0.3-0.4,0.7-0.8,1-1.2c0.3-0.4,0.6-0.9,0.8-1.4c1.1-1.9,1.6-3.9,1.6-6.2v-3.5c-6.1,0.7-10.3,1.8-12.8,3.3
				c-2.4,1.5-3.6,3.9-3.6,7.4c0,2,0.3,3.4,1,4s1.9,1,3.7,1c1.1,0,2.1-0.1,3.1-0.4C356.2,149.4,357.1,149,358,148.4z"/>
		</g>
	</g>
</g>
<g>
	<g transform="translate(1030.273751, 473.681247)">
		<g>
			<path class="st3" d="M345.5,159.3c-0.8-1-1.2-2.1-1.2-3.4v-0.2c0,0,0,0,0-0.1c0.2-2,0.9-3.4,2.3-4.1c0.8-0.4,1.9-0.6,3.4-0.6
				c1.3,0,2.2-0.1,2.5-0.4c0.2-0.2,0.4-0.4,0.5-0.6c0.1-0.9,0.1-2.2,0.1-4.1v-26.7c0-1.9,0-3.2-0.1-4.1c-0.1-0.2-0.2-0.3-0.5-0.6
				c-0.3-0.2-1.1-0.4-2.5-0.4c-1.5,0-2.7-0.3-3.6-0.8c-1.4-0.9-2.1-2.3-2.1-4.4c0-1.1,0.3-2.1,1-3c0.8-1.1,1.9-1.8,3.4-2
				c2.3-0.3,4.5-0.7,6.5-1.2c2-0.5,3.8-1,5.2-1.6l0.1-0.1h0.1c1.4-0.4,2.4-0.7,3-0.8h0.8c1.4,0,2.5,0.5,3.4,1.6
				c0.9,1,1.4,2.2,1.4,3.5v1.2c0.1-0.1,0.2-0.2,0.3-0.2c0.1-0.1,0.2-0.2,0.3-0.2c0.1-0.1,0.2-0.2,0.2-0.2c0.1-0.1,0.2-0.2,0.2-0.2
				c0.6-0.5,1.2-0.9,1.9-1.3c0.7-0.4,1.3-0.8,2-1.1c0.7-0.3,1.5-0.7,2.3-1c1.2-0.5,2.6-0.8,4.1-1c1.5-0.2,3.1-0.4,4.7-0.4
				c6.1,0,11,1.9,14.7,5.7c3.7,3.7,5.5,8.6,5.5,14.6v24.9c0,0.9,0,1.8,0.1,2.5c0,0.7,0.1,1.2,0.2,1.5l0.5,0.7
				c0.3,0.2,1.1,0.4,2.4,0.4h0.7c1.2,0,2.3,0.3,3.1,0.9c0.5,0.4,0.8,0.9,1.1,1.4c0.3,0.5,0.4,0.9,0.5,1.2c0,0.2,0.1,0.7,0.2,1.3v0.2
				c0,1.2-0.4,2.4-1.2,3.4c-0.9,1.2-2.1,1.9-3.6,1.9h-0.1c-2.3-0.2-4.4-0.2-6.4-0.3c-2,0-3.9-0.1-5.7-0.1c-1.7,0-3.6,0-5.6,0.1
				c-2,0-4.2,0.1-6.4,0.3h-0.1c-1.5,0-2.7-0.6-3.8-1.9c-0.7-1-1-2.1-1-3.4v-0.2c0.2-2,0.9-3.4,2.1-4.1c0.8-0.5,2-0.7,3.5-0.7
				c0.5,0,1,0,1.4-0.1c0.4-0.1,0.7-0.1,0.8-0.2c0.2,0,0.2-0.1,0.2-0.1c0.3-0.3,0.5-0.5,0.5-0.7c0.2-0.8,0.2-2.1,0.2-4v-24.8
				c0-2.6-0.8-4.6-2.3-5.9c-1.7-1.5-3.7-2.2-6-2.2c-1.3,0-2.5,0.1-3.6,0.4c-1.1,0.3-2.1,0.6-3,1.1c-0.2,0.1-0.3,0.2-0.4,0.2
				c-0.1,0.1-0.2,0.1-0.3,0.2c-0.1,0-0.2,0.1-0.3,0.2c-1.9,1.2-3.2,2.5-4,3.9v27c0,1.9,0.1,3.2,0.2,4c0,0.2,0.2,0.4,0.5,0.7
				c0,0,0.1,0,0.2,0.1c0.2,0,0.4,0.1,0.8,0.2c0.4,0.1,0.9,0.1,1.4,0.1h0.7c1.2,0,2.3,0.3,3.1,0.9c1,0.8,1.6,2.1,1.8,3.9v0.2
				c0,0.3,0,0.6-0.1,0.9c0,0.3-0.1,0.5-0.2,0.8c-0.1,0.3-0.2,0.5-0.3,0.8c-0.1,0.3-0.2,0.5-0.4,0.8c-0.3,0.4-0.7,0.7-1.1,1
				c-0.4,0.3-0.9,0.5-1.4,0.7c-0.5,0.2-0.9,0.2-1.4,0.2h-0.1c-4.5-0.2-8.6-0.4-12.1-0.4c-1.7,0-3.6,0-5.6,0.1c-2,0-4.2,0.1-6.4,0.3
				h-0.1C347.7,161.2,346.5,160.5,345.5,159.3z"/>
		</g>
	</g>
</g>
<g>
	<g transform="translate(1082.702589, 473.681247)">
		<g>
			<path class="st3" d="M377.2,158c-1.2-0.7-2.3-1.5-3.3-2.3c-1-0.8-2-1.7-2.9-2.6c-0.9-0.9-1.7-1.9-2.5-3c-0.7-1.1-1.4-2.1-2-3.2
				c-2.6-4.7-3.8-9.6-3.8-14.7c0-6.4,1.5-12,4.5-16.8c3-4.8,6.8-8.4,11.4-10.9c4.7-2.5,9.4-3.8,14.1-3.8c2.9,0,5.6,0.4,8.3,1.1
				c2.7,0.7,5.1,1.7,7.4,3.1c4.6,2.8,8.1,6.5,10.7,11.1c2.5,4.6,3.8,9.5,3.8,14.6c0,6.4-1.5,12-4.5,16.8c-3,4.8-6.9,8.4-11.6,10.9
				c-4.7,2.5-9.3,3.8-14,3.8C387,162.2,381.8,160.8,377.2,158z M402,146.8c0.4-0.8,0.8-1.6,1.1-2.5c0.3-0.9,0.7-1.9,0.9-2.9
				c0.3-1,0.5-2.1,0.7-3.2c0.2-1.1,0.3-2.3,0.4-3.6c0.1-1.3,0.1-2.6,0.1-3.9c0-6.2-1.1-11.1-3.4-14.9c-1.9-3.3-4.9-4.9-9-4.9
				c-2.3,0-4.1,0.4-5.6,1.2c-1.4,0.8-2.6,2.1-3.5,3.9c-0.7,1.3-1.3,2.8-1.8,4.4c-0.5,1.6-0.8,3.4-1.1,5.3c-0.3,1.9-0.4,4-0.4,6.3
				c0,6.2,1.1,11.2,3.4,15.1c1,1.7,2.2,3,3.6,3.8c1.4,0.8,3.2,1.2,5.4,1.2c1.5,0,2.8-0.2,3.8-0.6c1.1-0.4,2.1-0.9,2.9-1.7
				C400.5,149,401.3,148.1,402,146.8z"/>
		</g>
	</g>
</g>
<g>
	<g transform="translate(1130.667545, 473.681247)">
		<g>
			<path class="st3" d="M385.8,158.6c-4.9-2.7-7.4-6.7-7.4-11.8c0-3,1-5.5,2.9-7.5c0.9-1,2-1.8,3.3-2.3c1.3-0.5,2.6-0.8,4-0.8
				c0.5,0,0.9,0,1.3,0.1c0.4,0.1,0.9,0.2,1.3,0.3c0.4,0.1,0.8,0.3,1.2,0.5c0.4,0.2,0.8,0.4,1.2,0.8c0.1,0,0.2,0.1,0.5,0.3
				c0.3,0.2,0.5,0.4,0.6,0.5c0.1,0.1,0.3,0.3,0.5,0.5c0.2,0.2,0.4,0.5,0.5,0.7c0.1,0.2,0.2,0.5,0.4,0.9c0.1,0.3,0.2,0.7,0.2,1.1
				c0,0.7-0.1,1.3-0.2,1.8c-0.2,0.5-0.3,0.8-0.5,0.9c-0.2,0.1-0.5,0.3-0.8,0.5c-0.3,0.2-0.5,0.3-0.6,0.4c-0.4,0.4-0.6,1.1-0.6,2
				c0,1.2,0.6,2.2,1.9,3c1.6,1.1,4.2,1.6,7.7,1.6c3,0,5.2-0.6,6.8-1.8c1.3-1,2-2.5,2-4.4c0-0.6-0.1-1.1-0.2-1.6
				c-0.2-0.4-0.4-0.8-0.7-1.2c-0.5-0.5-1-0.9-1.5-1.2c-0.5-0.3-1.2-0.7-1.9-1c-0.8-0.3-1.8-0.7-3-1c-1.2-0.4-2.6-0.8-4-1.3
				c-1.9-0.5-3.7-1.1-5.4-1.7c-1.6-0.6-3.1-1.1-4.3-1.7c-1.5-0.6-2.8-1.4-4-2.4c-1.2-1-2.3-2.1-3.3-3.4c-2.1-2.7-3.1-6.1-3.1-10.3
				c0-4,1.2-7.4,3.7-10.3c1.2-1.4,2.5-2.6,4-3.6c1.5-1,3.2-1.9,5.1-2.6c1.2-0.4,2.4-0.7,3.6-1c1.2-0.3,2.4-0.5,3.7-0.6
				c1.3-0.2,2.6-0.2,4-0.2c5.1,0,9.6,1.1,13.4,3.3c4.4,2.6,6.5,6.1,6.5,10.7c0,2.8-0.9,5.2-2.7,7.2c-1.9,2.2-4.3,3.2-7.2,3.2
				c-1.9,0-3.5-0.5-5-1.6c-0.1,0-0.3-0.1-0.5-0.3c-0.3-0.2-0.5-0.3-0.6-0.5c-0.1-0.1-0.3-0.3-0.5-0.5c-0.2-0.2-0.4-0.5-0.5-0.7
				c-0.1-0.2-0.2-0.5-0.4-0.9c-0.1-0.3-0.2-0.7-0.2-1.1c0-0.7,0.1-1.3,0.3-1.8c0.2-0.5,0.4-0.8,0.6-0.9c0.2-0.1,0.4-0.2,0.6-0.3
				c0.2-0.1,0.4-0.2,0.5-0.2c0.4-0.4,0.8-0.9,1.2-1.4c0.2-0.2,0.2-0.4,0.2-0.8c-0.1-1.1-0.7-1.9-1.8-2.6c-1.5-0.9-3.3-1.3-5.4-1.3
				l-1.4,0.1c-0.9,0.1-1.8,0.2-2.6,0.5c-0.8,0.2-1.5,0.6-2.2,1c-1.3,0.8-2,1.8-2,3.2c0,0.8,0.1,1.6,0.2,2.1c0.2,0.5,0.4,1,0.6,1.4
				c0.2,0.2,0.4,0.5,0.7,0.7c0.2,0.2,0.5,0.5,0.9,0.7c0.4,0.2,0.9,0.5,1.4,0.7c0.9,0.4,2,0.8,3.4,1.3c1.4,0.5,3.2,1.1,5.2,1.7
				c1,0.4,2,0.7,2.9,1.1c0.9,0.3,1.8,0.6,2.7,0.9c0.9,0.3,1.7,0.6,2.4,0.9c0.8,0.3,1.4,0.6,2,0.9c2.8,1.3,5,3.1,6.7,5.5
				c1.7,2.4,2.6,5.5,2.6,9.2c0,1.9-0.3,3.7-0.9,5.4c-0.6,1.8-1.4,3.4-2.5,5c-1.1,1.6-2.4,2.9-3.9,4.1c-1.5,1.2-3.1,2.1-5,2.9
				c-2.7,1.2-5.7,2-9,2.3c-1,0.1-2.1,0.1-3.1,0.1C395.6,162.2,390,161,385.8,158.6z"/>
		</g>
	</g>
</g>
</svg>
